<mxfile host="Electron" modified="2023-09-17T04:47:14.977Z" agent="Mozilla/5.0 (Windows NT 10.0; Win64; x64) AppleWebKit/537.36 (KHTML, like Gecko) draw.io/21.7.5 Chrome/114.0.5735.289 Electron/25.8.1 Safari/537.36" etag="oiL8a_h4SbIrb6AE9P5j" version="21.7.5" type="device">
  <diagram id="R2lEEEUBdFMjLlhIrx00" name="Page-1">
    <mxGraphModel dx="1036" dy="606" grid="1" gridSize="10" guides="1" tooltips="1" connect="1" arrows="1" fold="1" page="1" pageScale="1" pageWidth="1654" pageHeight="1169" math="0" shadow="0" extFonts="Permanent Marker^https://fonts.googleapis.com/css?family=Permanent+Marker">
      <root>
        <object label="" id="0">
          <mxCell />
        </object>
        <mxCell id="1" parent="0" />
        <mxCell id="HJ-EXYccR-48vUw-oxeI-11" style="edgeStyle=orthogonalEdgeStyle;rounded=0;orthogonalLoop=1;jettySize=auto;html=1;exitX=1;exitY=0.5;exitDx=0;exitDy=0;entryX=0;entryY=0.5;entryDx=0;entryDy=0;endArrow=none;endFill=0;" edge="1" parent="1" source="HJ-EXYccR-48vUw-oxeI-1" target="HJ-EXYccR-48vUw-oxeI-8">
          <mxGeometry relative="1" as="geometry" />
        </mxCell>
        <mxCell id="HJ-EXYccR-48vUw-oxeI-1" value="loại sản phẩm" style="rounded=0;whiteSpace=wrap;html=1;" vertex="1" parent="1">
          <mxGeometry x="510" y="190" width="90" height="60" as="geometry" />
        </mxCell>
        <mxCell id="HJ-EXYccR-48vUw-oxeI-2" value="sản phẩm" style="rounded=0;whiteSpace=wrap;html=1;" vertex="1" parent="1">
          <mxGeometry x="510" y="410" width="90" height="60" as="geometry" />
        </mxCell>
        <mxCell id="HJ-EXYccR-48vUw-oxeI-4" value="có" style="rhombus;whiteSpace=wrap;html=1;" vertex="1" parent="1">
          <mxGeometry x="510" y="290" width="90" height="80" as="geometry" />
        </mxCell>
        <mxCell id="HJ-EXYccR-48vUw-oxeI-5" value="" style="endArrow=ERmany;html=1;rounded=0;entryX=0.5;entryY=1;entryDx=0;entryDy=0;exitX=0.5;exitY=0;exitDx=0;exitDy=0;endFill=0;" edge="1" parent="1" source="HJ-EXYccR-48vUw-oxeI-4" target="HJ-EXYccR-48vUw-oxeI-1">
          <mxGeometry width="50" height="50" relative="1" as="geometry">
            <mxPoint x="210" y="320" as="sourcePoint" />
            <mxPoint x="260" y="270" as="targetPoint" />
          </mxGeometry>
        </mxCell>
        <mxCell id="HJ-EXYccR-48vUw-oxeI-6" value="" style="endArrow=none;html=1;rounded=0;exitX=0.5;exitY=0;exitDx=0;exitDy=0;entryX=0.5;entryY=1;entryDx=0;entryDy=0;" edge="1" parent="1" source="HJ-EXYccR-48vUw-oxeI-2" target="HJ-EXYccR-48vUw-oxeI-4">
          <mxGeometry width="50" height="50" relative="1" as="geometry">
            <mxPoint x="232.5" y="430" as="sourcePoint" />
            <mxPoint x="238" y="380" as="targetPoint" />
          </mxGeometry>
        </mxCell>
        <mxCell id="HJ-EXYccR-48vUw-oxeI-7" value="đợt giảm giá" style="rounded=0;whiteSpace=wrap;html=1;" vertex="1" parent="1">
          <mxGeometry x="827" y="190" width="120" height="60" as="geometry" />
        </mxCell>
        <mxCell id="HJ-EXYccR-48vUw-oxeI-13" style="edgeStyle=orthogonalEdgeStyle;rounded=0;orthogonalLoop=1;jettySize=auto;html=1;exitX=1;exitY=0.5;exitDx=0;exitDy=0;entryX=0;entryY=0.5;entryDx=0;entryDy=0;endArrow=none;endFill=0;" edge="1" parent="1" source="HJ-EXYccR-48vUw-oxeI-8" target="HJ-EXYccR-48vUw-oxeI-7">
          <mxGeometry relative="1" as="geometry" />
        </mxCell>
        <mxCell id="HJ-EXYccR-48vUw-oxeI-9" value="" style="rounded=0;whiteSpace=wrap;html=1;" vertex="1" parent="1">
          <mxGeometry x="670" y="190" width="80" height="60" as="geometry" />
        </mxCell>
        <mxCell id="HJ-EXYccR-48vUw-oxeI-14" value="" style="edgeStyle=orthogonalEdgeStyle;rounded=0;orthogonalLoop=1;jettySize=auto;html=1;exitX=1;exitY=0.5;exitDx=0;exitDy=0;entryX=0;entryY=0.5;entryDx=0;entryDy=0;endArrow=none;endFill=0;" edge="1" parent="1" source="HJ-EXYccR-48vUw-oxeI-9" target="HJ-EXYccR-48vUw-oxeI-8">
          <mxGeometry relative="1" as="geometry">
            <mxPoint x="600" y="220" as="sourcePoint" />
            <mxPoint x="827" y="220" as="targetPoint" />
          </mxGeometry>
        </mxCell>
        <mxCell id="HJ-EXYccR-48vUw-oxeI-8" value="có" style="rhombus;whiteSpace=wrap;html=1;" vertex="1" parent="1">
          <mxGeometry x="670" y="190" width="80" height="60" as="geometry" />
        </mxCell>
        <mxCell id="HJ-EXYccR-48vUw-oxeI-19" style="edgeStyle=orthogonalEdgeStyle;rounded=0;orthogonalLoop=1;jettySize=auto;html=1;exitX=1;exitY=0.5;exitDx=0;exitDy=0;entryX=0;entryY=0.5;entryDx=0;entryDy=0;endArrow=none;endFill=0;startArrow=ERmany;startFill=0;" edge="1" parent="1" source="HJ-EXYccR-48vUw-oxeI-15" target="HJ-EXYccR-48vUw-oxeI-16">
          <mxGeometry relative="1" as="geometry" />
        </mxCell>
        <mxCell id="HJ-EXYccR-48vUw-oxeI-15" value="hãng sản xuất" style="rounded=0;whiteSpace=wrap;html=1;" vertex="1" parent="1">
          <mxGeometry x="120" y="190" width="120" height="60" as="geometry" />
        </mxCell>
        <mxCell id="HJ-EXYccR-48vUw-oxeI-21" style="edgeStyle=orthogonalEdgeStyle;rounded=0;orthogonalLoop=1;jettySize=auto;html=1;exitX=1;exitY=0.5;exitDx=0;exitDy=0;entryX=0;entryY=0.5;entryDx=0;entryDy=0;endArrow=none;endFill=0;" edge="1" parent="1" source="HJ-EXYccR-48vUw-oxeI-16" target="HJ-EXYccR-48vUw-oxeI-1">
          <mxGeometry relative="1" as="geometry" />
        </mxCell>
        <mxCell id="HJ-EXYccR-48vUw-oxeI-16" value="sản xuất" style="rhombus;whiteSpace=wrap;html=1;" vertex="1" parent="1">
          <mxGeometry x="330" y="190" width="80" height="60" as="geometry" />
        </mxCell>
        <mxCell id="HJ-EXYccR-48vUw-oxeI-22" value="thể loại" style="rounded=0;whiteSpace=wrap;html=1;" vertex="1" parent="1">
          <mxGeometry x="120" y="430" width="120" height="60" as="geometry" />
        </mxCell>
        <mxCell id="HJ-EXYccR-48vUw-oxeI-23" value="" style="endArrow=none;html=1;rounded=0;entryX=0.5;entryY=1;entryDx=0;entryDy=0;exitX=0.5;exitY=0;exitDx=0;exitDy=0;" edge="1" parent="1" source="HJ-EXYccR-48vUw-oxeI-24" target="HJ-EXYccR-48vUw-oxeI-15">
          <mxGeometry width="50" height="50" relative="1" as="geometry">
            <mxPoint x="180" y="310" as="sourcePoint" />
            <mxPoint x="260" y="340" as="targetPoint" />
          </mxGeometry>
        </mxCell>
        <mxCell id="HJ-EXYccR-48vUw-oxeI-25" value="" style="rounded=0;whiteSpace=wrap;html=1;" vertex="1" parent="1">
          <mxGeometry x="140" y="300" width="80" height="60" as="geometry" />
        </mxCell>
        <mxCell id="HJ-EXYccR-48vUw-oxeI-24" value="sản xuất" style="rhombus;whiteSpace=wrap;html=1;" vertex="1" parent="1">
          <mxGeometry x="140" y="300" width="80" height="60" as="geometry" />
        </mxCell>
        <mxCell id="HJ-EXYccR-48vUw-oxeI-26" value="" style="endArrow=none;html=1;rounded=0;entryX=0.5;entryY=1;entryDx=0;entryDy=0;exitX=0.5;exitY=0;exitDx=0;exitDy=0;" edge="1" parent="1" source="HJ-EXYccR-48vUw-oxeI-22" target="HJ-EXYccR-48vUw-oxeI-24">
          <mxGeometry width="50" height="50" relative="1" as="geometry">
            <mxPoint x="140" y="440" as="sourcePoint" />
            <mxPoint x="190" y="390" as="targetPoint" />
          </mxGeometry>
        </mxCell>
      </root>
    </mxGraphModel>
  </diagram>
</mxfile>
